<svg xmlns="http://www.w3.org/2000/svg" width="34.824" height="33.375" viewBox="0 0 34.824 33.375">
  <g id="checkmark" transform="translate(-0.001 -0.014)">
    <path id="Path_1" data-name="Path 1" d="M30.038,16.852l-.779-2.214-8.405,8.405a4.351,4.351,0,0,1-6.155,0L8.532,16.877a4.352,4.352,0,1,1,6.155-6.155l3.089,3.088,8.276-8.276-.557-1.582-.257-1.535a2.87,2.87,0,0,0-4.5-1.864L16.705,3.472,12.628.545A2.869,2.869,0,0,0,8.136,2.414L7.347,7.328,2.4,8.15a2.87,2.87,0,0,0-1.863,4.5l2.918,4.032L.532,20.761A2.869,2.869,0,0,0,2.4,25.253l4.914.791.821,4.942a2.868,2.868,0,0,0,4.5,1.864l4.032-2.919,4.067,2.919a2.87,2.87,0,0,0,4.5-1.862l.791-4.914,4.942-.821a2.868,2.868,0,0,0,1.864-4.5Zm0,0" transform="translate(0 0)" fill="#4ef57a"/>
    <path id="Path_2" data-name="Path 2" d="M156.968,61.206a1.447,1.447,0,0,1-1.026-.425l-6.167-6.167a1.451,1.451,0,0,1,2.052-2.052l5.14,5.141,14.572-14.572a1.451,1.451,0,1,1,2.052,2.052l-15.6,15.6A1.447,1.447,0,0,1,156.968,61.206Zm0,0" transform="translate(-139.192 -39.789)" fill="#85ffe0"/>
  </g>
</svg>
