<svg xmlns="http://www.w3.org/2000/svg" width="150.943" height="150.943" viewBox="0 0 150.943 150.943">
  <g id="svg1" transform="translate(-258.529 -80.529)">
    <g id="svg1-2" data-name="svg1" transform="translate(-322.504 -916.282) rotate(31)">
      <circle id="Ellipse_3" data-name="Ellipse 3" cx="7" cy="7" r="7" transform="translate(1060 526)" fill="#85ffe0"/>
      <circle id="Ellipse_3-2" data-name="Ellipse 3" cx="7" cy="7" r="7" transform="translate(1084 526)" fill="#fff"/>
      <circle id="Ellipse_3-3" data-name="Ellipse 3" cx="7" cy="7" r="7" transform="translate(1108 526)" fill="#85ffe0"/>
      <circle id="Ellipse_3-4" data-name="Ellipse 3" cx="7" cy="7" r="7" transform="translate(1132 526)" fill="#fff"/>
      <circle id="Ellipse_3-5" data-name="Ellipse 3" cx="7" cy="7" r="7" transform="translate(1156 526)" fill="#85ffe0"/>
      <circle id="Ellipse_3-6" data-name="Ellipse 3" cx="7" cy="7" r="7" transform="translate(1060 550)" fill="#fff"/>
      <circle id="Ellipse_3-7" data-name="Ellipse 3" cx="7" cy="7" r="7" transform="translate(1084 550)" fill="#85ffe0"/>
      <circle id="Ellipse_3-8" data-name="Ellipse 3" cx="7" cy="7" r="7" transform="translate(1108 550)" fill="#fff"/>
      <circle id="Ellipse_3-9" data-name="Ellipse 3" cx="7" cy="7" r="7" transform="translate(1132 550)" fill="#85ffe0"/>
      <circle id="Ellipse_3-10" data-name="Ellipse 3" cx="7" cy="7" r="7" transform="translate(1156 550)" fill="#fff"/>
      <circle id="Ellipse_3-11" data-name="Ellipse 3" cx="7" cy="7" r="7" transform="translate(1060 574)" fill="#85ffe0"/>
      <circle id="Ellipse_3-12" data-name="Ellipse 3" cx="7" cy="7" r="7" transform="translate(1084 574)" fill="#fff"/>
      <circle id="Ellipse_3-13" data-name="Ellipse 3" cx="7" cy="7" r="7" transform="translate(1108 574)" fill="#85ffe0"/>
      <circle id="Ellipse_3-14" data-name="Ellipse 3" cx="7" cy="7" r="7" transform="translate(1132 574)" fill="#fff"/>
      <circle id="Ellipse_3-15" data-name="Ellipse 3" cx="7" cy="7" r="7" transform="translate(1156 574)" fill="#85ffe0"/>
      <circle id="Ellipse_3-16" data-name="Ellipse 3" cx="7" cy="7" r="7" transform="translate(1060 598)" fill="#fff"/>
      <circle id="Ellipse_3-17" data-name="Ellipse 3" cx="7" cy="7" r="7" transform="translate(1084 598)" fill="#85ffe0"/>
      <circle id="Ellipse_3-18" data-name="Ellipse 3" cx="7" cy="7" r="7" transform="translate(1108 598)" fill="#fff"/>
      <circle id="Ellipse_3-19" data-name="Ellipse 3" cx="7" cy="7" r="7" transform="translate(1132 598)" fill="#85ffe0"/>
      <circle id="Ellipse_3-20" data-name="Ellipse 3" cx="7" cy="7" r="7" transform="translate(1156 598)" fill="#fff"/>
      <circle id="Ellipse_3-21" data-name="Ellipse 3" cx="7" cy="7" r="7" transform="translate(1060 622)" fill="#85ffe0"/>
      <circle id="Ellipse_3-22" data-name="Ellipse 3" cx="7" cy="7" r="7" transform="translate(1084 622)" fill="#fff"/>
      <circle id="Ellipse_3-23" data-name="Ellipse 3" cx="7" cy="7" r="7" transform="translate(1108 622)" fill="#85ffe0"/>
      <circle id="Ellipse_3-24" data-name="Ellipse 3" cx="7" cy="7" r="7" transform="translate(1132 622)" fill="#fff"/>
      <circle id="Ellipse_3-25" data-name="Ellipse 3" cx="7" cy="7" r="7" transform="translate(1156 622)" fill="#85ffe0"/>
    </g>
  </g>
</svg>
