<svg xmlns="http://www.w3.org/2000/svg" width="103.356" height="103.356" viewBox="0 0 103.356 103.356">
  <g id="svg2" transform="translate(20.678 -429.322)">
    <g id="svg2-2" data-name="svg2" transform="translate(-21.383 -24.337) rotate(21)">
      <g id="Group_16" data-name="Group 16">
        <circle id="Ellipse_5" data-name="Ellipse 5" cx="7" cy="7" r="7" transform="translate(190 413)" fill="#85ffe0"/>
        <circle id="Ellipse_5-2" data-name="Ellipse 5" cx="7" cy="7" r="7" transform="translate(210 413)" fill="#fff"/>
        <circle id="Ellipse_5-3" data-name="Ellipse 5" cx="7" cy="7" r="7" transform="translate(190 433)" fill="#fff"/>
        <circle id="Ellipse_5-4" data-name="Ellipse 5" cx="7" cy="7" r="7" transform="translate(210 433)" fill="#85ffe0"/>
      </g>
      <g id="Group_16-2" data-name="Group 16" transform="translate(46)">
        <circle id="Ellipse_5-5" data-name="Ellipse 5" cx="7" cy="7" r="7" transform="translate(190 413)" fill="#85ffe0"/>
        <circle id="Ellipse_5-6" data-name="Ellipse 5" cx="7" cy="7" r="7" transform="translate(210 413)" fill="#fff"/>
        <circle id="Ellipse_5-7" data-name="Ellipse 5" cx="7" cy="7" r="7" transform="translate(190 433)" fill="#fff"/>
        <circle id="Ellipse_5-8" data-name="Ellipse 5" cx="7" cy="7" r="7" transform="translate(210 433)" fill="#85ffe0"/>
      </g>
      <g id="Group_16-3" data-name="Group 16" transform="translate(0 46)">
        <circle id="Ellipse_5-9" data-name="Ellipse 5" cx="7" cy="7" r="7" transform="translate(190 413)" fill="#85ffe0"/>
        <circle id="Ellipse_5-10" data-name="Ellipse 5" cx="7" cy="7" r="7" transform="translate(210 413)" fill="#fff"/>
        <circle id="Ellipse_5-11" data-name="Ellipse 5" cx="7" cy="7" r="7" transform="translate(190 433)" fill="#fff"/>
        <circle id="Ellipse_5-12" data-name="Ellipse 5" cx="7" cy="7" r="7" transform="translate(210 433)" fill="#85ffe0"/>
      </g>
      <g id="Group_16-4" data-name="Group 16" transform="translate(46 46)">
        <circle id="Ellipse_5-13" data-name="Ellipse 5" cx="7" cy="7" r="7" transform="translate(190 413)" fill="#85ffe0"/>
        <circle id="Ellipse_5-14" data-name="Ellipse 5" cx="7" cy="7" r="7" transform="translate(210 413)" fill="#fff"/>
        <circle id="Ellipse_5-15" data-name="Ellipse 5" cx="7" cy="7" r="7" transform="translate(190 433)" fill="#fff"/>
        <circle id="Ellipse_5-16" data-name="Ellipse 5" cx="7" cy="7" r="7" transform="translate(210 433)" fill="#85ffe0"/>
      </g>
    </g>
  </g>
</svg>
